{"glyphs":{" ":{"ha":347,"x_min":0,"x_max":0,"o":""},"A":{"ha":499,"x_min":0,"x_max":0,"o":"m 485 113 l 429 113 l 429 850 b 286 993 429 929 365 993 l 211 993 b 68 850 132 993 68 929 l 68 113 l 14 113 l 14 -21 l 485 -21 z m 35 0 l 35 92 l 89 92 l 89 850 b 211 972 89 918 144 972 l 286 972 b 408 850 354 972 408 918 l 408 92 l 464 92 l 464 0 l 263 0 l 263 92 l 317 92 l 317 500 l 181 483 l 181 92 l 236 92 l 236 0 z m 181 576 l 317 592 l 317 850 b 286 881 317 867 304 881 l 211 881 b 181 850 194 881 181 867 z m 201 113 l 201 465 l 296 476 l 296 113 z m 201 600 l 201 850 b 211 860 201 856 206 860 l 286 860 b 296 850 292 860 296 856 l 296 610 z "},"B":{"ha":436,"x_min":0,"x_max":0,"o":"m 429 122 l 429 457 b 399 546 429 489 419 521 b 414 611 408 567 414 589 l 414 850 b 271 993 414 929 350 993 l 14 993 l 14 860 l 68 860 l 68 113 l 14 113 l 14 -21 l 286 -21 b 429 122 365 -21 429 43 z m 35 0 l 35 92 l 89 92 l 89 881 l 35 881 l 35 972 l 271 972 b 393 850 339 972 393 918 l 393 611 b 372 543 393 586 386 563 b 408 457 396 521 408 490 l 408 122 b 286 0 408 54 354 0 z m 181 92 l 286 92 b 317 122 304 92 317 106 l 317 457 b 292 488 317 472 307 485 l 279 489 l 181 478 z m 181 571 l 275 582 b 301 611 290 583 301 596 l 301 850 b 271 881 301 867 289 881 l 181 881 z m 201 113 l 201 460 l 282 468 b 296 457 290 469 296 463 l 296 122 b 286 113 296 117 292 113 z m 201 594 l 201 860 l 271 860 b 281 850 276 860 281 856 l 281 611 b 272 603 281 607 278 603 z "},"C":{"ha":389,"x_min":0,"x_max":0,"o":"m 375 993 l 242 993 l 232 993 l 157 993 b 14 850 78 993 14 929 l 14 122 b 157 -21 14 43 78 -21 l 232 -21 l 242 -21 l 375 -21 l 375 235 l 242 235 l 242 122 b 232 113 242 117 238 113 l 157 113 b 147 122 151 113 147 117 l 147 850 b 157 860 147 856 151 860 l 232 860 b 242 850 238 860 242 856 l 242 738 l 375 738 z m 35 122 l 35 850 b 157 972 35 918 89 972 l 232 972 b 263 968 243 972 253 971 l 263 972 l 354 972 l 354 758 l 263 758 l 263 850 b 232 881 263 867 249 881 l 157 881 b 126 850 140 881 126 867 l 126 122 b 157 92 126 106 140 92 l 232 92 b 263 122 249 92 263 106 l 263 214 l 354 214 l 354 0 l 263 0 l 263 4 b 232 0 253 1 243 0 l 157 0 b 35 122 89 0 35 54 z "},"D":{"ha":443,"x_min":0,"x_max":0,"o":"m 286 993 l 14 993 l 14 860 l 68 860 l 68 113 l 14 113 l 14 -21 l 286 -21 b 429 122 365 -21 429 43 l 429 850 b 286 993 429 929 365 993 z m 35 0 l 35 92 l 89 92 l 89 881 l 35 881 l 35 972 l 286 972 b 408 850 354 972 408 918 l 408 122 b 286 0 408 54 354 0 z m 181 92 l 286 92 b 317 122 304 92 317 106 l 317 850 b 286 881 317 867 304 881 l 181 881 z m 201 113 l 201 860 l 286 860 b 296 850 292 860 296 856 l 296 122 b 286 113 296 117 292 113 z "},"E":{"ha":429,"x_min":0,"x_max":0,"o":"m 282 750 l 415 750 l 415 993 l 14 993 l 14 860 l 68 860 l 68 113 l 14 113 l 14 -21 l 415 -21 l 415 222 l 282 222 l 282 113 l 201 113 l 201 468 l 350 485 l 350 619 l 201 601 l 201 860 l 282 860 z m 35 0 l 35 92 l 89 92 l 89 881 l 35 881 l 35 972 l 394 972 l 394 771 l 303 771 l 303 881 l 181 881 l 181 578 l 329 596 l 329 503 l 181 486 l 181 92 l 303 92 l 303 201 l 394 201 l 394 0 z "},"F":{"ha":429,"x_min":0,"x_max":0,"o":"m 282 750 l 415 750 l 415 993 l 14 993 l 14 860 l 68 860 l 68 113 l 14 113 l 14 -21 l 257 -21 l 257 113 l 201 113 l 201 468 l 350 485 l 350 619 l 201 601 l 201 860 l 282 860 z m 35 0 l 35 92 l 89 92 l 89 881 l 35 881 l 35 972 l 394 972 l 394 771 l 303 771 l 303 881 l 181 881 l 181 578 l 329 596 l 329 503 l 181 486 l 181 92 l 236 92 l 236 0 z "},"G":{"ha":389,"x_min":0,"x_max":0,"o":"m 375 993 l 242 993 l 232 993 l 157 993 b 14 850 78 993 14 929 l 14 122 b 157 -21 14 43 78 -21 l 232 -21 l 242 -21 l 375 -21 l 375 407 l 183 407 l 183 275 l 242 275 l 242 122 b 232 113 242 117 238 113 l 157 113 b 147 122 151 113 147 117 l 147 850 b 157 860 147 856 151 860 l 232 860 b 242 850 238 860 242 856 l 242 738 l 375 738 z m 35 122 l 35 850 b 157 972 35 918 89 972 l 232 972 b 263 968 243 972 253 971 l 263 972 l 354 972 l 354 758 l 263 758 l 263 850 b 232 881 263 867 249 881 l 157 881 b 126 850 140 881 126 867 l 126 122 b 157 92 126 106 140 92 l 232 92 b 263 122 249 92 263 106 l 263 296 l 204 296 l 204 386 l 354 386 l 354 0 l 263 0 l 263 4 b 232 0 253 1 243 0 l 157 0 b 35 122 89 0 35 54 z "},"H":{"ha":517,"x_min":0,"x_max":0,"o":"m 449 860 l 503 860 l 503 993 l 260 993 l 260 860 l 315 860 l 315 611 l 201 599 l 201 860 l 257 860 l 257 993 l 14 993 l 14 860 l 68 860 l 68 113 l 14 113 l 14 -21 l 257 -21 l 257 113 l 201 113 l 201 465 l 315 478 l 315 113 l 260 113 l 260 -21 l 503 -21 l 503 113 l 449 113 z m 35 0 l 35 92 l 89 92 l 89 881 l 35 881 l 35 972 l 236 972 l 236 881 l 181 881 l 181 575 l 336 593 l 336 881 l 281 881 l 281 972 l 482 972 l 482 881 l 428 881 l 428 92 l 482 92 l 482 0 l 281 0 l 281 92 l 336 92 l 336 501 l 181 483 l 181 92 l 236 92 l 236 0 z "},"I":{"ha":271,"x_min":0,"x_max":0,"o":"m 201 860 l 257 860 l 257 993 l 14 993 l 14 860 l 68 860 l 68 113 l 14 113 l 14 -21 l 257 -21 l 257 113 l 201 113 z m 35 0 l 35 92 l 89 92 l 89 881 l 35 881 l 35 972 l 236 972 l 236 881 l 181 881 l 181 92 l 236 92 l 236 0 z "},"J":{"ha":429,"x_min":0,"x_max":0,"o":"m 415 993 l 172 993 l 172 860 l 226 860 l 226 122 b 217 113 226 117 222 113 l 147 113 l 147 222 l 14 222 l 14 -21 l 217 -21 b 360 122 296 -21 360 43 l 360 860 l 415 860 z m 35 0 l 35 201 l 126 201 l 126 92 l 217 92 b 247 122 233 92 247 106 l 247 881 l 193 881 l 193 972 l 394 972 l 394 881 l 339 881 l 339 122 b 217 0 339 54 285 0 z "},"K":{"ha":501,"x_min":0,"x_max":0,"o":"m 411 113 l 351 450 b 393 539 375 474 390 504 l 421 860 l 488 860 l 488 993 l 14 993 l 14 860 l 68 860 l 68 113 l 14 113 l 14 -21 l 482 -21 l 482 113 z m 35 0 l 35 92 l 89 92 l 89 881 l 35 881 l 35 972 l 236 972 l 236 881 l 181 881 l 181 513 l 254 521 b 281 549 268 522 279 533 l 310 881 l 265 881 l 265 972 l 467 972 l 467 881 l 401 881 l 372 540 b 329 457 369 507 353 478 l 393 92 l 461 92 l 461 0 l 261 0 l 261 92 l 300 92 l 242 426 l 181 421 l 181 92 l 236 92 l 236 0 z m 201 113 l 201 401 l 225 404 l 275 113 z m 201 535 l 201 860 l 288 860 l 260 550 b 236 538 260 547 257 540 b 201 535 225 535 213 535 z "},"L":{"ha":429,"x_min":0,"x_max":0,"o":"m 415 222 l 282 222 l 282 113 l 201 113 l 201 860 l 257 860 l 257 993 l 14 993 l 14 860 l 68 860 l 68 113 l 14 113 l 14 -21 l 415 -21 z m 35 0 l 35 92 l 89 92 l 89 881 l 35 881 l 35 972 l 236 972 l 236 881 l 181 881 l 181 92 l 303 92 l 303 201 l 394 201 l 394 0 z "},"M":{"ha":647,"x_min":0,"x_max":0,"o":"m 578 860 l 633 860 l 633 993 l 494 993 b 324 921 431 993 368 967 b 153 993 279 967 218 993 l 14 993 l 14 860 l 68 860 l 68 113 l 14 113 l 14 -21 l 257 -21 l 257 113 l 201 113 l 201 849 b 257 756 235 831 257 794 l 257 538 l 390 538 l 390 756 b 444 847 390 794 413 829 l 444 113 l 390 113 l 390 -21 l 633 -21 l 633 113 l 578 113 z m 35 0 l 35 92 l 89 92 l 89 881 l 35 881 l 35 972 l 153 972 b 324 889 222 972 283 940 b 494 972 363 940 425 972 l 613 972 l 613 881 l 557 881 l 557 92 l 613 92 l 613 0 l 411 0 l 411 92 l 465 92 l 465 878 b 369 756 411 865 369 815 l 369 558 l 278 558 l 278 756 b 181 878 278 815 236 865 l 181 92 l 236 92 l 236 0 z "},"N":{"ha":549,"x_min":0,"x_max":0,"o":"m 479 860 l 535 860 l 535 993 l 292 993 l 292 860 l 347 860 l 347 372 b 204 860 261 521 211 689 l 257 860 l 257 993 l 14 993 l 14 860 l 68 860 l 68 113 l 14 113 l 14 -21 l 257 -21 l 257 113 l 201 113 l 201 360 b 347 140 242 282 292 208 l 347 113 l 292 113 l 292 -21 l 535 -21 l 535 113 l 479 113 z m 35 0 l 35 92 l 89 92 l 89 881 l 35 881 l 35 972 l 236 972 l 236 881 l 182 881 b 368 300 188 672 253 471 l 368 881 l 313 881 l 313 972 l 514 972 l 514 881 l 458 881 l 458 92 l 514 92 l 514 0 l 313 0 l 313 92 l 368 92 l 368 147 b 181 454 290 240 226 343 l 181 92 l 236 92 l 236 0 z "},"O":{"ha":389,"x_min":0,"x_max":0,"o":"m 375 122 l 375 850 b 232 993 375 929 311 993 l 157 993 b 14 850 78 993 14 929 l 14 122 b 157 -21 14 43 78 -21 l 232 -21 b 375 122 311 -21 375 43 z m 35 122 l 35 850 b 157 972 35 918 89 972 l 232 972 b 354 850 300 972 354 918 l 354 122 b 232 0 354 54 300 0 l 157 0 b 35 122 89 0 35 54 z m 126 122 b 157 92 126 106 140 92 l 232 92 b 263 122 249 92 263 106 l 263 850 b 232 881 263 867 249 881 l 157 881 b 126 850 140 881 126 867 z m 147 122 l 147 850 b 157 860 147 856 151 860 l 232 860 b 242 850 238 860 242 856 l 242 122 b 232 113 242 117 238 113 l 157 113 b 147 122 151 113 147 117 z "},"P":{"ha":444,"x_min":0,"x_max":0,"o":"m 286 993 l 14 993 l 14 860 l 68 860 l 68 113 l 14 113 l 14 -21 l 257 -21 l 257 113 l 201 113 l 201 401 b 257 407 219 403 239 404 b 429 554 347 417 429 444 l 429 850 b 286 993 429 929 365 993 z m 35 0 l 35 92 l 89 92 l 89 881 l 35 881 l 35 972 l 286 972 b 408 850 354 972 408 918 l 408 554 b 300 433 408 492 363 440 l 181 421 l 181 92 l 236 92 l 236 0 z m 181 513 l 290 524 b 317 554 306 526 317 539 l 317 850 b 286 881 317 867 304 881 l 181 881 z m 201 536 l 201 860 l 286 860 b 296 850 292 860 296 856 l 296 554 b 289 544 296 549 292 544 z "},"Q":{"ha":389,"x_min":0,"x_max":0,"o":"m 340 6 l 331 19 b 375 122 358 46 375 83 l 375 850 b 232 993 375 929 311 993 l 157 993 b 14 850 78 993 14 929 l 14 122 b 157 -21 14 43 78 -21 l 197 -21 l 269 -128 l 449 -128 l 449 6 z m 35 122 l 35 850 b 157 972 35 918 89 972 l 232 972 b 354 850 300 972 354 918 l 354 122 b 303 24 354 82 335 46 l 329 -15 l 428 -15 l 428 -107 l 281 -107 l 208 0 l 157 0 b 35 122 89 0 35 54 z m 126 122 b 157 92 126 106 140 92 l 232 92 b 263 122 249 92 263 106 l 263 850 b 232 881 263 867 249 881 l 157 881 b 126 850 140 881 126 867 z m 147 122 l 147 850 b 157 860 147 856 151 860 l 232 860 b 242 850 238 860 242 856 l 242 122 b 232 113 242 117 238 113 l 157 113 b 147 122 151 113 147 117 z "},"R":{"ha":486,"x_min":0,"x_max":0,"o":"m 411 113 l 356 429 b 429 554 401 454 429 501 l 429 850 b 286 993 429 929 365 993 l 14 993 l 14 860 l 68 860 l 68 113 l 14 113 l 14 -21 l 479 -21 l 479 113 z m 35 0 l 35 92 l 89 92 l 89 881 l 35 881 l 35 972 l 286 972 b 408 850 354 972 408 918 l 408 554 b 332 442 408 503 378 460 l 393 92 l 458 92 l 458 0 l 257 0 l 257 92 l 300 92 l 242 426 l 181 421 l 181 92 l 236 92 l 236 0 z m 181 513 l 290 524 b 317 554 306 526 317 539 l 317 850 b 286 881 317 867 304 881 l 181 881 z m 201 113 l 201 401 l 225 404 l 275 113 z m 201 536 l 201 860 l 286 860 b 296 850 292 860 296 856 l 296 554 b 289 544 296 549 292 544 z "},"S":{"ha":389,"x_min":0,"x_max":0,"o":"m 375 993 l 242 993 l 232 993 l 157 993 b 14 850 78 993 14 929 l 14 642 b 140 490 14 556 83 515 b 218 458 168 478 196 468 b 242 438 240 446 242 440 l 242 122 b 232 113 242 117 238 113 l 157 113 b 147 122 151 113 147 117 l 147 235 l 14 235 l 14 -21 l 232 -21 b 375 122 311 -21 375 43 l 375 438 b 249 590 375 525 306 565 b 171 624 221 603 193 613 b 151 636 161 628 154 632 b 147 642 149 638 147 640 l 147 850 b 157 860 147 856 151 860 l 232 860 b 242 850 238 860 242 856 l 242 738 l 375 738 z m 35 0 l 35 214 l 126 214 l 126 122 b 157 92 126 106 140 92 l 232 92 b 263 122 249 92 263 106 l 263 438 b 246 465 263 450 256 460 l 104 532 b 35 642 63 553 35 596 l 35 850 b 157 972 35 918 89 972 l 232 972 b 263 968 243 972 253 971 l 263 972 l 354 972 l 354 758 l 263 758 l 263 850 b 232 881 263 867 249 881 l 157 881 b 126 850 140 881 126 867 l 126 642 b 143 615 126 631 133 619 l 285 549 b 354 438 326 528 354 485 l 354 122 b 232 0 354 54 300 0 l 157 0 b 126 4 146 0 136 1 l 126 0 z "},"T":{"ha":507,"x_min":0,"x_max":0,"o":"m 493 993 l 14 993 l 14 750 l 147 750 l 147 860 l 186 860 l 186 113 l 132 113 l 132 -21 l 375 -21 l 375 113 l 319 113 l 319 860 l 360 860 l 360 750 l 493 750 z m 35 771 l 35 972 l 472 972 l 472 771 l 381 771 l 381 881 l 299 881 l 299 92 l 354 92 l 354 0 l 153 0 l 153 92 l 207 92 l 207 881 l 126 881 l 126 771 z "},"U":{"ha":499,"x_min":0,"x_max":0,"o":"m 485 860 l 485 993 l 14 993 l 14 860 l 68 860 l 68 122 b 211 -21 68 43 132 -21 l 286 -21 b 429 122 365 -21 429 43 l 429 860 z m 35 881 l 35 972 l 236 972 l 236 881 l 181 881 l 181 122 b 211 92 181 106 194 92 l 286 92 b 317 122 304 92 317 106 l 317 881 l 263 881 l 263 972 l 464 972 l 464 881 l 408 881 l 408 122 b 286 0 408 54 354 0 l 211 0 b 89 122 144 0 89 54 l 89 881 z m 201 122 l 201 860 l 296 860 l 296 122 b 286 113 296 117 292 113 l 211 113 b 201 122 206 113 201 117 z "},"V":{"ha":499,"x_min":0,"x_max":0,"o":"m 154 113 l 128 113 l 128 -21 l 371 -21 l 371 113 l 344 113 b 425 479 394 326 415 403 b 429 860 433 557 429 636 l 485 860 l 485 993 l 14 993 l 14 860 l 68 860 b 74 479 68 636 64 557 b 154 113 82 403 104 326 z m 35 881 l 35 972 l 236 972 l 236 881 l 181 881 l 181 550 b 194 435 181 511 185 472 l 249 200 l 304 435 b 317 550 313 472 317 511 l 317 881 l 263 881 l 263 972 l 464 972 l 464 881 l 408 881 l 408 550 b 393 414 408 504 404 458 l 318 92 l 350 92 l 350 0 l 149 0 l 149 92 l 181 92 l 106 414 b 89 550 94 458 89 504 l 89 881 z m 201 550 l 201 860 l 296 860 l 296 550 b 272 378 296 494 286 436 b 250 289 265 347 257 318 l 215 439 b 201 550 207 476 201 513 z "},"W":{"ha":682,"x_min":0,"x_max":0,"o":"m 117 -21 l 565 -21 l 565 113 l 546 113 b 589 261 561 163 576 211 b 614 444 603 319 614 381 l 614 860 l 668 860 l 668 993 l 425 993 l 425 860 l 481 860 l 481 444 b 444 239 481 375 464 306 b 407 486 419 324 407 397 l 407 507 l 275 507 l 275 486 b 238 239 275 397 263 324 b 219 308 232 263 225 285 b 201 444 208 353 201 399 l 201 860 l 257 860 l 257 993 l 14 993 l 14 860 l 68 860 l 68 444 b 93 261 68 381 79 319 b 136 113 106 211 121 163 l 117 113 z m 35 881 l 35 972 l 236 972 l 236 881 l 181 881 l 181 444 b 204 283 181 390 189 336 l 238 165 l 272 283 b 296 444 288 336 296 390 l 296 486 l 386 486 l 386 444 b 410 283 386 390 394 336 l 444 165 l 478 283 b 501 444 493 336 501 390 l 501 881 l 446 881 l 446 972 l 647 972 l 647 881 l 593 881 l 593 444 b 567 258 593 382 583 319 l 518 92 l 544 92 l 544 0 l 343 0 l 343 92 l 369 92 l 340 192 l 313 92 l 339 92 l 339 0 l 138 0 l 138 92 l 164 92 l 115 258 b 89 444 99 319 89 382 l 89 881 z m 340 113 l 340 115 l 342 113 z "},"X":{"ha":499,"x_min":0,"x_max":0,"o":"m 393 400 b 342 522 381 431 364 468 b 388 618 361 563 376 593 b 429 860 428 710 429 758 l 485 860 l 485 993 l 14 993 l 14 860 l 68 860 b 82 690 68 781 71 735 b 111 617 89 668 97 644 b 157 522 122 592 138 561 b 106 400 135 469 118 432 b 69 231 81 339 69 296 b 68 113 68 200 68 163 l 14 113 l 14 -21 l 485 -21 l 485 113 l 429 113 l 429 232 b 421 317 428 267 425 292 b 393 400 415 342 406 365 z m 35 0 l 35 92 l 89 92 l 89 233 b 117 372 89 281 99 328 l 179 524 l 126 631 b 89 792 103 681 89 736 l 89 881 l 35 881 l 35 972 l 236 972 l 236 881 l 181 881 l 181 792 b 210 671 181 750 190 708 l 249 590 l 289 671 b 317 792 307 708 317 750 l 317 881 l 263 881 l 263 972 l 464 972 l 464 881 l 408 881 l 408 792 b 371 631 408 736 396 681 l 318 524 l 381 372 b 408 233 400 328 408 281 l 408 92 l 464 92 l 464 0 l 263 0 l 263 92 l 317 92 l 317 233 b 297 338 317 268 310 304 l 249 451 l 201 338 b 181 233 188 304 181 268 l 181 92 l 236 92 l 236 0 z m 201 113 l 201 233 b 224 338 201 269 210 303 b 249 400 231 358 240 379 b 296 233 274 347 296 292 l 296 113 z m 201 792 l 201 860 l 296 860 l 296 789 b 289 735 294 767 293 750 b 271 682 286 718 281 703 b 249 638 265 669 257 654 b 201 792 225 686 201 736 z "},"Y":{"ha":499,"x_min":0,"x_max":0,"o":"m 128 113 l 128 -21 l 371 -21 l 371 113 l 315 113 l 315 338 b 417 596 374 458 403 525 b 428 714 424 632 426 668 b 429 860 429 753 429 800 l 485 860 l 485 993 l 14 993 l 14 860 l 68 860 b 69 713 68 800 68 753 b 82 596 71 668 75 632 b 182 338 96 526 125 460 l 182 113 z m 35 881 l 35 972 l 236 972 l 236 881 l 181 881 l 181 721 b 231 500 181 644 199 568 l 249 460 l 268 500 b 317 721 300 568 317 644 l 317 881 l 263 881 l 263 972 l 464 972 l 464 881 l 408 881 l 408 721 b 351 461 408 632 389 542 l 294 342 l 294 92 l 350 92 l 350 0 l 149 0 l 149 92 l 203 92 l 203 342 l 147 461 b 89 721 110 542 89 632 l 89 881 z m 201 721 l 201 860 l 296 860 l 296 721 b 249 511 296 643 279 579 b 201 721 219 581 201 642 z "},"Z":{"ha":431,"x_min":0,"x_max":0,"o":"m 415 222 l 282 222 l 282 113 l 194 113 b 329 496 244 249 293 372 b 394 926 368 631 394 767 l 394 993 l 14 993 l 14 750 l 147 750 l 147 860 l 258 860 b 182 469 253 726 226 594 l 6 -21 l 415 -21 z m 35 0 l 201 463 b 281 881 250 597 276 738 l 126 881 l 126 771 l 35 771 l 35 972 l 374 972 l 374 926 b 288 432 374 757 344 592 l 165 92 l 303 92 l 303 201 l 394 201 l 394 0 z "},"a":{"ha":432,"x_min":0,"x_max":0,"o":"m 417 99 l 371 99 l 371 717 b 247 840 371 785 315 840 l 183 840 b 60 717 115 840 60 785 l 60 99 l 14 99 l 14 -21 l 417 -21 z m 35 0 l 35 78 l 81 78 l 81 717 b 183 819 81 774 126 819 l 247 819 b 350 717 304 819 350 774 l 350 78 l 396 78 l 396 0 l 226 0 l 226 78 l 272 78 l 272 421 l 158 408 l 158 78 l 204 78 l 204 0 z m 158 486 l 272 499 l 272 717 b 247 742 272 731 261 742 l 183 742 b 158 717 169 742 158 731 z m 179 99 l 179 390 l 251 397 l 251 99 z m 179 510 l 179 717 b 183 721 179 719 181 721 l 247 721 b 251 717 250 721 251 719 l 251 517 z "},"b":{"ha":378,"x_min":0,"x_max":0,"o":"m 371 103 l 371 385 b 344 461 371 413 361 439 b 358 515 353 478 358 496 l 358 717 b 235 840 358 785 303 840 l 14 840 l 14 721 l 60 721 l 60 99 l 14 99 l 14 -21 l 247 -21 b 371 103 315 -21 371 35 z m 35 0 l 35 78 l 81 78 l 81 742 l 35 742 l 35 819 l 235 819 b 338 717 292 819 338 774 l 338 515 b 319 458 338 494 331 475 b 350 385 339 439 350 414 l 350 103 b 247 0 350 46 304 0 z m 158 78 l 247 78 b 272 103 261 78 272 89 l 272 385 b 251 411 272 397 264 408 l 240 413 l 158 403 z m 158 481 l 238 490 b 260 515 250 492 260 503 l 260 717 b 235 742 260 731 249 742 l 158 742 z m 179 99 l 179 385 l 243 392 b 251 385 247 393 251 389 l 251 103 b 247 99 251 100 250 99 z m 179 504 l 179 721 l 235 721 b 239 717 238 721 239 719 l 239 515 b 235 511 239 514 238 511 z "},"c":{"ha":339,"x_min":0,"x_max":0,"o":"m 325 840 l 206 840 b 182 840 197 840 190 840 l 138 840 b 14 717 69 840 14 785 l 14 103 b 138 -21 14 35 69 -21 b 182 -21 153 -21 167 -21 l 206 -21 l 325 -21 l 325 201 l 206 201 l 206 181 b 208 121 206 168 210 143 b 204 100 207 111 206 104 l 201 99 l 138 99 b 133 103 135 99 133 100 l 133 717 b 138 721 133 719 135 721 l 201 721 b 204 719 203 721 204 719 b 208 699 206 715 207 708 b 206 639 210 676 206 651 l 206 618 l 325 618 z m 35 103 l 35 717 b 138 819 35 774 81 819 l 201 819 b 226 817 210 819 218 818 l 226 819 l 304 819 l 304 639 l 226 639 l 226 717 b 201 742 226 731 215 742 l 138 742 b 113 717 124 742 113 731 l 113 103 b 138 78 113 89 124 78 l 201 78 b 226 103 215 78 226 89 l 226 181 l 304 181 l 304 0 l 226 0 l 226 3 b 201 0 218 1 210 0 l 138 0 b 35 103 81 0 35 46 z "},"d":{"ha":386,"x_min":0,"x_max":0,"o":"m 247 840 l 14 840 l 14 721 l 60 721 l 60 99 l 14 99 l 14 -21 l 247 -21 b 371 103 315 -21 371 35 l 371 717 b 247 840 371 785 315 840 z m 35 0 l 35 78 l 81 78 l 81 742 l 35 742 l 35 819 l 247 819 b 350 717 304 819 350 774 l 350 103 b 247 0 350 46 304 0 z m 158 78 l 247 78 b 272 103 261 78 272 89 l 272 717 b 247 742 272 731 261 742 l 158 742 z m 179 99 l 179 721 l 247 721 b 251 717 250 721 251 719 l 251 103 b 247 99 251 100 250 99 z "},"e":{"ha":372,"x_min":0,"x_max":0,"o":"m 239 629 l 358 629 l 358 840 l 14 840 l 14 721 l 60 721 l 60 99 l 14 99 l 14 -21 l 358 -21 l 358 190 l 239 190 l 239 99 l 179 99 l 179 392 l 304 406 l 304 525 l 179 511 l 179 721 l 239 721 z m 35 0 l 35 78 l 81 78 l 81 742 l 35 742 l 35 819 l 338 819 l 338 650 l 260 650 l 260 742 l 158 742 l 158 488 l 283 501 l 283 424 l 158 410 l 158 78 l 260 78 l 260 169 l 338 169 l 338 0 z "},"f":{"ha":372,"x_min":0,"x_max":0,"o":"m 239 629 l 358 629 l 358 840 l 14 840 l 14 721 l 60 721 l 60 99 l 14 99 l 14 -21 l 225 -21 l 225 99 l 179 99 l 179 392 l 304 406 l 304 525 l 179 511 l 179 721 l 239 721 z m 35 0 l 35 78 l 81 78 l 81 742 l 35 742 l 35 819 l 338 819 l 338 650 l 260 650 l 260 742 l 158 742 l 158 488 l 283 501 l 283 424 l 158 410 l 158 78 l 204 78 l 204 0 z "},"g":{"ha":339,"x_min":0,"x_max":0,"o":"m 325 840 l 206 840 b 182 840 197 840 190 840 l 138 840 b 14 717 69 840 14 785 l 14 103 b 138 -21 14 35 69 -21 b 182 -21 153 -21 167 -21 l 206 -21 l 325 -21 l 325 347 l 156 347 l 156 228 l 206 228 l 206 103 b 201 99 206 100 204 99 l 138 99 b 133 103 135 99 133 100 l 133 717 b 138 721 133 719 135 721 l 201 721 b 204 719 203 721 204 719 b 208 699 206 715 207 708 b 206 639 210 676 206 651 l 206 618 l 325 618 z m 35 103 l 35 717 b 138 819 35 774 81 819 l 201 819 b 226 817 210 819 218 818 l 226 819 l 304 819 l 304 639 l 226 639 l 226 717 b 201 742 226 731 215 742 l 138 742 b 113 717 124 742 113 731 l 113 103 b 138 78 113 89 124 78 l 201 78 b 226 103 215 78 226 89 l 226 249 l 176 249 l 176 326 l 304 326 l 304 0 l 226 0 l 226 3 b 201 0 218 1 210 0 l 138 0 b 35 103 81 0 35 46 z "},"h":{"ha":447,"x_min":0,"x_max":0,"o":"m 386 721 l 432 721 l 432 840 l 14 840 l 14 721 l 60 721 l 60 99 l 14 99 l 14 -21 l 432 -21 l 432 99 l 386 99 z m 35 0 l 35 78 l 81 78 l 81 742 l 35 742 l 35 819 l 204 819 l 204 742 l 158 742 l 158 485 l 289 500 l 289 742 l 242 742 l 242 819 l 411 819 l 411 742 l 365 742 l 365 78 l 411 78 l 411 0 l 242 0 l 242 78 l 289 78 l 289 422 l 158 407 l 158 78 l 204 78 l 204 0 z m 179 99 l 179 389 l 268 399 l 268 99 z m 179 508 l 179 721 l 268 721 l 268 518 z "},"i":{"ha":239,"x_min":0,"x_max":0,"o":"m 179 721 l 225 721 l 225 840 l 14 840 l 14 721 l 60 721 l 60 99 l 14 99 l 14 -21 l 225 -21 l 225 99 l 179 99 z m 35 0 l 35 78 l 81 78 l 81 742 l 35 742 l 35 819 l 204 819 l 204 742 l 158 742 l 158 78 l 204 78 l 204 0 z "},"j":{"ha":372,"x_min":0,"x_max":0,"o":"m 358 840 l 147 840 l 147 721 l 193 721 l 193 103 b 189 99 193 100 192 99 l 133 99 l 133 190 l 14 190 l 14 -21 l 189 -21 b 313 103 257 -21 313 35 l 313 721 l 358 721 z m 35 0 l 35 169 l 113 169 l 113 78 l 189 78 b 214 103 203 78 214 89 l 214 742 l 168 742 l 168 819 l 338 819 l 338 742 l 292 742 l 292 103 b 189 0 292 46 246 0 z "},"k":{"ha":433,"x_min":0,"x_max":0,"o":"m 356 99 l 306 379 b 340 454 325 399 338 426 l 363 721 l 419 721 l 419 840 l 14 840 l 14 721 l 60 721 l 60 99 l 14 99 l 14 -21 l 415 -21 l 415 99 z m 35 0 l 35 78 l 81 78 l 81 742 l 35 742 l 35 819 l 204 819 l 204 742 l 158 742 l 158 432 l 219 439 b 242 463 232 440 242 450 l 267 742 l 229 742 l 229 819 l 399 819 l 399 742 l 343 742 l 319 456 b 283 386 317 428 303 403 l 338 78 l 394 78 l 394 0 l 225 0 l 225 78 l 258 78 l 210 360 l 158 354 l 158 78 l 204 78 l 204 0 z m 179 99 l 179 336 l 193 338 l 233 99 z m 179 454 l 179 721 l 244 721 l 221 464 b 219 461 221 463 221 461 b 179 454 213 454 189 454 z "},"l":{"ha":372,"x_min":0,"x_max":0,"o":"m 358 190 l 239 190 l 239 99 l 179 99 l 179 721 l 225 721 l 225 840 l 14 840 l 14 721 l 60 721 l 60 99 l 14 99 l 14 -21 l 358 -21 z m 35 0 l 35 78 l 81 78 l 81 742 l 35 742 l 35 819 l 204 819 l 204 742 l 158 742 l 158 78 l 260 78 l 260 169 l 338 169 l 338 0 z "},"m":{"ha":557,"x_min":0,"x_max":0,"o":"m 496 721 l 542 721 l 542 840 l 422 840 b 278 781 368 840 315 818 b 135 840 240 818 189 840 l 14 840 l 14 721 l 60 721 l 60 99 l 14 99 l 14 -21 l 225 -21 l 225 99 l 179 99 l 179 708 b 218 638 203 693 218 667 l 218 449 l 338 449 l 338 638 b 378 710 338 668 353 694 l 378 99 l 331 99 l 331 -21 l 542 -21 l 542 99 l 496 99 z m 35 0 l 35 78 l 81 78 l 81 742 l 35 742 l 35 819 l 135 819 b 278 749 193 819 244 792 b 422 819 311 792 364 819 l 521 819 l 521 742 l 475 742 l 475 78 l 521 78 l 521 0 l 351 0 l 351 78 l 399 78 l 399 740 b 317 638 351 729 317 688 l 317 469 l 239 469 l 239 638 b 158 740 239 688 204 729 l 158 78 l 204 78 l 204 0 z "},"n":{"ha":474,"x_min":0,"x_max":0,"o":"m 413 721 l 460 721 l 460 840 l 249 840 l 249 721 l 294 721 l 294 326 b 181 721 226 447 188 583 l 225 721 l 225 840 l 14 840 l 14 721 l 60 721 l 60 99 l 14 99 l 14 -21 l 225 -21 l 225 99 l 179 99 l 179 290 b 294 117 213 229 250 171 l 294 99 l 249 99 l 249 -21 l 460 -21 l 460 99 l 413 99 z m 35 0 l 35 78 l 81 78 l 81 742 l 35 742 l 35 819 l 204 819 l 204 742 l 158 742 b 315 253 164 567 218 397 l 315 742 l 269 742 l 269 819 l 439 819 l 439 742 l 392 742 l 392 78 l 439 78 l 439 0 l 269 0 l 269 78 l 315 78 l 315 124 b 158 383 250 203 197 290 l 158 78 l 204 78 l 204 0 z "},"o":{"ha":339,"x_min":0,"x_max":0,"o":"m 325 103 l 325 717 b 201 840 325 785 269 840 l 138 840 b 14 717 69 840 14 785 l 14 103 b 138 -21 14 35 69 -21 l 201 -21 b 325 103 269 -21 325 35 z m 35 103 l 35 717 b 138 819 35 774 81 819 l 201 819 b 304 717 258 819 304 774 l 304 103 b 201 0 304 46 258 0 l 138 0 b 35 103 81 0 35 46 z m 113 103 b 138 78 113 89 124 78 l 201 78 b 226 103 215 78 226 89 l 226 717 b 201 742 226 731 215 742 l 138 742 b 113 717 124 742 113 731 z m 133 103 l 133 717 b 138 721 133 719 135 721 l 201 721 b 206 717 204 721 206 719 l 206 103 b 201 99 206 100 204 99 l 138 99 b 133 103 135 99 133 100 z "},"p":{"ha":386,"x_min":0,"x_max":0,"o":"m 247 840 l 14 840 l 14 721 l 60 721 l 60 99 l 14 99 l 14 -21 l 225 -21 l 225 99 l 179 99 l 179 335 l 224 339 b 371 468 301 349 371 374 l 371 717 b 247 840 371 785 315 840 z m 35 0 l 35 78 l 81 78 l 81 742 l 35 742 l 35 819 l 247 819 b 350 717 304 819 350 774 l 350 468 b 258 365 350 415 311 371 l 158 354 l 158 78 l 204 78 l 204 0 z m 158 432 l 250 442 b 272 468 263 443 272 454 l 272 717 b 247 742 272 731 261 742 l 158 742 z m 179 456 l 179 721 l 247 721 b 251 717 250 721 251 719 l 251 468 b 247 463 251 464 249 463 z "},"q":{"ha":339,"x_min":0,"x_max":0,"o":"m 294 7 l 289 15 b 325 103 313 39 325 71 l 325 717 b 201 840 325 785 269 840 l 138 840 b 14 717 69 840 14 785 l 14 103 b 138 -21 14 35 69 -21 l 169 -21 l 231 -111 l 386 -111 l 386 7 z m 35 103 l 35 717 b 138 819 35 774 81 819 l 201 819 b 304 717 258 819 304 774 l 304 103 b 261 19 304 68 288 38 l 283 -14 l 365 -14 l 365 -90 l 242 -90 l 181 0 l 138 0 b 35 103 81 0 35 46 z m 113 103 b 138 78 113 89 124 78 l 201 78 b 226 103 215 78 226 89 l 226 717 b 201 742 226 731 215 742 l 138 742 b 113 717 124 742 113 731 z m 133 103 l 133 717 b 138 721 133 719 135 721 l 201 721 b 206 717 204 721 206 719 l 206 103 b 201 99 206 100 204 99 l 138 99 b 133 103 135 99 133 100 z "},"r":{"ha":426,"x_min":0,"x_max":0,"o":"m 356 99 l 308 360 b 371 468 346 382 371 424 l 371 717 b 247 840 371 785 315 840 l 14 840 l 14 721 l 60 721 l 60 99 l 14 99 l 14 -21 l 413 -21 l 413 99 z m 35 0 l 35 78 l 81 78 l 81 742 l 35 742 l 35 819 l 247 819 b 350 717 304 819 350 774 l 350 468 b 285 372 350 425 324 388 l 338 78 l 392 78 l 392 0 l 222 0 l 222 78 l 258 78 l 210 360 l 158 354 l 158 78 l 204 78 l 204 0 z m 158 432 l 250 442 b 272 468 263 443 272 454 l 272 717 b 247 742 272 731 261 742 l 158 742 z m 179 99 l 179 336 l 193 338 l 233 99 z m 179 456 l 179 721 l 247 721 b 251 717 250 721 251 719 l 251 468 b 247 463 251 464 249 463 z "},"s":{"ha":339,"x_min":0,"x_max":0,"o":"m 325 840 l 206 840 b 182 840 197 840 190 840 l 138 840 b 14 717 69 840 14 785 l 14 542 b 122 410 14 465 74 431 b 188 383 146 400 169 392 b 204 372 196 379 200 375 b 206 369 206 371 206 369 l 206 103 b 201 99 206 100 204 99 l 138 99 b 135 100 136 99 135 100 b 131 121 133 104 132 111 b 133 181 129 143 133 168 l 133 201 l 14 201 l 14 -21 l 132 -21 l 201 -21 b 325 103 269 -21 325 35 l 325 369 b 217 500 325 446 265 479 b 151 528 193 511 169 518 b 136 538 143 532 139 535 l 133 542 l 133 717 b 138 721 133 719 135 721 l 201 721 b 204 719 203 721 204 719 b 208 699 206 715 207 708 b 206 639 210 676 206 651 l 206 618 l 325 618 z m 35 0 l 35 181 l 113 181 l 113 103 b 138 78 113 89 124 78 l 201 78 b 226 103 215 78 226 89 l 226 369 b 213 392 226 379 221 388 l 93 449 b 35 542 58 465 35 501 l 35 717 b 138 819 35 774 81 819 l 201 819 b 226 817 210 819 218 818 l 226 819 l 304 819 l 304 639 l 226 639 l 226 717 b 201 742 226 731 215 742 l 138 742 b 113 717 124 742 113 731 l 113 542 b 126 518 113 532 118 522 l 246 463 b 304 369 281 444 304 408 l 304 103 b 201 0 304 46 258 0 l 138 0 b 113 3 129 0 119 1 l 113 0 z "},"t":{"ha":439,"x_min":0,"x_max":0,"o":"m 424 840 l 14 840 l 14 629 l 133 629 l 133 721 l 160 721 l 160 99 l 114 99 l 114 -21 l 325 -21 l 325 99 l 278 99 l 278 721 l 306 721 l 306 629 l 424 629 z m 35 650 l 35 819 l 403 819 l 403 650 l 326 650 l 326 742 l 257 742 l 257 78 l 304 78 l 304 0 l 135 0 l 135 78 l 181 78 l 181 742 l 113 742 l 113 650 z "},"u":{"ha":432,"x_min":0,"x_max":0,"o":"m 14 840 l 14 721 l 60 721 l 60 103 b 183 -21 60 35 115 -21 l 247 -21 b 371 103 315 -21 371 35 l 371 721 l 417 721 l 417 840 z m 35 742 l 35 819 l 204 819 l 204 742 l 158 742 l 158 103 b 183 78 158 89 169 78 l 247 78 b 272 103 261 78 272 89 l 272 742 l 226 742 l 226 819 l 396 819 l 396 742 l 350 742 l 350 103 b 247 0 350 46 304 0 l 183 0 b 81 103 126 0 81 46 l 81 742 z m 179 103 l 179 721 l 251 721 l 251 103 b 247 99 251 100 250 99 l 183 99 b 179 103 181 99 179 100 z "},"v":{"ha":432,"x_min":0,"x_max":0,"o":"m 132 99 l 110 99 l 110 -21 l 321 -21 b 300 99 321 -21 321 78 b 367 404 342 274 360 339 b 371 721 374 469 371 536 l 417 721 l 417 840 l 14 840 l 14 721 l 60 721 b 64 403 60 535 57 468 b 132 99 72 339 90 276 z m 35 742 l 35 819 l 204 819 l 204 742 l 158 742 l 158 464 b 169 367 158 431 161 399 l 215 169 l 261 367 b 272 464 269 399 272 431 l 272 742 l 226 742 l 226 819 l 396 819 l 396 742 l 350 742 l 350 464 b 338 349 350 425 346 386 l 274 78 l 300 78 l 300 0 l 131 0 l 131 78 l 158 78 l 94 349 b 81 464 85 386 81 425 l 81 742 z m 179 464 l 179 721 l 251 721 l 251 464 b 232 319 251 417 243 368 b 215 254 226 297 221 276 l 199 319 b 179 464 188 368 179 417 z "},"w":{"ha":586,"x_min":0,"x_max":0,"o":"m 100 -21 l 485 -21 l 485 99 l 469 99 b 525 375 497 189 525 279 l 525 721 l 572 721 l 572 840 l 361 840 l 361 721 l 407 721 l 407 375 b 392 261 407 335 401 297 b 379 213 389 244 385 229 b 353 410 360 279 353 340 l 353 431 l 233 431 l 233 410 b 206 214 233 342 225 279 b 194 261 201 229 197 244 b 179 375 185 299 179 336 l 179 721 l 225 721 l 225 840 l 14 840 l 14 721 l 60 721 l 60 375 b 115 99 60 281 88 189 l 100 99 z m 35 742 l 35 819 l 204 819 l 204 742 l 158 742 l 158 375 b 178 239 158 329 164 283 l 206 139 l 235 239 b 254 375 247 283 254 329 l 254 410 l 332 410 l 332 375 b 350 239 332 329 338 283 l 379 139 l 408 239 b 428 375 421 283 428 329 l 428 742 l 382 742 l 382 819 l 551 819 l 551 742 l 504 742 l 504 375 b 482 218 504 322 497 269 l 442 78 l 464 78 l 464 0 l 294 0 l 294 78 l 317 78 l 293 161 l 268 78 l 290 78 l 290 0 l 121 0 l 121 78 l 143 78 l 103 218 b 81 375 89 269 81 322 l 81 742 z "},"x":{"ha":432,"x_min":0,"x_max":0,"o":"m 339 339 b 297 440 329 365 315 397 l 335 518 b 371 721 371 594 371 635 l 417 721 l 417 840 l 14 840 l 14 721 l 60 721 b 72 582 60 656 61 618 b 96 518 76 561 85 542 b 135 440 106 497 118 472 b 92 339 115 397 101 365 b 60 194 71 288 63 250 l 60 99 l 14 99 l 14 -21 l 417 -21 l 417 99 l 371 99 l 371 194 b 339 339 368 250 360 288 z m 35 0 l 35 78 l 81 78 l 81 196 b 104 314 81 236 89 276 l 157 442 l 113 531 b 81 667 92 574 81 621 l 81 742 l 35 742 l 35 819 l 204 819 l 204 742 l 158 742 l 158 667 b 182 565 158 632 167 597 l 215 497 l 249 565 b 272 667 265 597 272 632 l 272 742 l 226 742 l 226 819 l 396 819 l 396 742 l 350 742 l 350 667 b 318 531 350 621 339 574 l 274 442 l 326 314 b 350 196 342 276 350 236 l 350 78 l 396 78 l 396 0 l 226 0 l 226 78 l 272 78 l 272 196 b 256 283 272 226 267 256 l 215 381 l 175 283 b 158 196 164 256 158 226 l 158 78 l 204 78 l 204 0 z m 179 99 l 179 196 b 215 328 179 239 196 289 b 251 196 235 289 251 239 l 251 99 z m 179 667 l 179 721 l 251 721 l 251 664 b 231 576 249 628 246 610 l 215 544 b 179 667 196 583 179 622 z "},"y":{"ha":432,"x_min":0,"x_max":0,"o":"m 110 99 l 110 -21 l 321 -21 l 321 99 l 275 99 l 275 283 b 360 501 324 386 347 442 b 369 600 365 531 368 561 b 371 721 371 633 371 671 l 417 721 l 417 840 l 14 840 l 14 721 l 60 721 b 61 600 60 671 60 633 b 71 501 63 561 65 531 b 156 283 83 442 107 386 l 156 99 z m 35 742 l 35 819 l 204 819 l 204 742 l 158 742 l 158 607 b 200 421 158 543 172 479 l 215 388 l 232 421 b 272 607 258 479 272 543 l 272 742 l 226 742 l 226 819 l 396 819 l 396 742 l 350 742 l 350 607 b 301 389 350 532 333 457 l 254 288 l 254 78 l 300 78 l 300 0 l 131 0 l 131 78 l 176 78 l 176 288 l 129 389 b 81 607 97 457 81 532 l 81 742 z m 179 607 l 179 721 l 251 721 l 251 607 b 217 438 251 546 239 492 b 179 607 193 493 179 543 z "},"z":{"ha":374,"x_min":0,"x_max":0,"o":"m 358 190 l 240 190 l 240 99 l 174 99 b 286 417 215 211 256 313 b 342 781 319 531 342 647 l 342 840 l 14 840 l 14 629 l 133 629 l 133 721 l 221 721 b 156 397 215 611 193 501 l 6 -21 l 358 -21 z m 35 0 l 175 390 b 243 742 215 504 239 622 l 113 742 l 113 650 l 35 650 l 35 819 l 321 819 l 321 781 b 247 364 321 639 296 499 l 144 78 l 261 78 l 261 169 l 338 169 l 338 0 z "}," ":{"ha":338,"x_min":0,"x_max":0,"o":""}}}
